
<svg xmlns="http://www.w3.org/2000/svg" version="1.1" xmlns:xlink="http://www.w3.org/1999/xlink" preserveAspectRatio="none" x="0px" y="0px" width="753px" height="651px" viewBox="0 0 753 651">
<defs>
<g id="Layer0_0_FILL">
<path fill="#FF0003" stroke="none" d="
M 374 52.6
L 50.6 610.6 692.65 610.6 374 52.6
M 80.35 594.75
L 372.5 86.95 666.75 594.75 80.35 594.75
M 621 571.4
L 372.65 132.45 123.8 571.4 621 571.4
M 419.85 270.35
L 407.35 285.9
Q 403.3 288.9 399.2 285.9
L 382.65 273.1 364.75 291.65 447.55 367.4 447.55 487.1 381.3 545.2 312.65 484.35 312.65 369.05 356.95 329.2 325.5 301.45
Q 322.25 298.05 325.5 293.7
L 375.2 235.55
Q 378.45 232.3 384.35 235.55
L 419.85 264.95
Q 421.8 267.5 419.85 270.35
M 380.6 351.45
L 338.35 391.75 338.35 463.4 380.6 503.25 423.55 464.05 423.55 390.35 380.6 351.45 Z"/>
</g>
</defs>

<g transform="matrix( 1, 0, 0, 1, 0,0) ">
<use xlink:href="#Layer0_0_FILL"/>
</g>
</svg>
